
<svg viewBox="0 0 16 16" version="1.1" xmlns="http://www.w3.org/2000/svg" xmlns:xlink="http://www.w3.org/1999/xlink" class="si-glyph si-glyph-document-edit"><title>Document-edit</title><defs></defs><g stroke="none" stroke-width="1" fill="none" fill-rule="evenodd"><g fill="#434343"><path d="M7.016,0.016 L7.016,3.984 L8.279,3.984 L9.932,2.34 L7.016,0.016 Z" class="si-glyph-fill"></path><path d="M8.979,12.29 C7.468,12.875 5.222,13.757 4.958,13.884 C4.791,13.968 4.594,14.015 4.396,14.015 C3.944,14.015 3.51,13.78 3.237,13.384 C2.972,13.001 2.908,12.525 3.064,12.11 C3.152,11.881 3.99,9.408 4.499,7.902 L4.577,7.671 L7.244,5.017 L5.969,5.017 L5.969,0.012 L0.034,0.012 L0.034,15.97 L11.976,15.97 L11.976,9.426 L9.183,12.212 L8.979,12.29 L8.979,12.29 Z" class="si-glyph-fill"></path><path d="M14.682,3.91 L13.147,2.396 C12.737,1.988 11.929,1.819 11.54,2.207 L5.485,8.234 C5.485,8.234 4.164,12.147 4.039,12.476 C3.94,12.738 4.27,13.066 4.499,12.951 C4.873,12.765 8.604,11.32 8.604,11.32 L14.675,5.263 C15.065,4.875 15.093,4.317 14.682,3.91 L14.682,3.91 Z M8.021,10.854 L5.454,11.828 L4.993,11.403 L6.218,8.438 L6.959,8.984 L8.017,8.984 L8.021,10.854 L8.021,10.854 Z" class="si-glyph-fill"></path></g></g></svg>