<!--?xml version="1.0" encoding="UTF-8" standalone="no"?-->
<svg viewBox="0 0 17 17" version="1.1" xmlns="http://www.w3.org/2000/svg" xmlns:xlink="http://www.w3.org/1999/xlink" class="si-glyph si-glyph-delete">
    <!-- Generator: Sketch 3.0.3 (7891) - http://www.bohemiancoding.com/sketch -->
    <title>1227</title>
    
    <defs></defs>
    <g stroke="none" stroke-width="1" fill="none" fill-rule="evenodd">
        <path d="M12.566,8 L15.611,4.956 C16.031,4.535 16.031,3.853 15.611,3.434 L12.566,0.389 C12.146,-0.031 11.464,-0.031 11.043,0.389 L7.999,3.433 L4.955,0.389 C4.534,-0.031 3.852,-0.031 3.432,0.389 L0.388,3.434 C-0.034,3.854 -0.034,4.536 0.387,4.956 L3.431,8 L0.387,11.044 C-0.034,11.465 -0.034,12.147 0.388,12.567 L3.432,15.611 C3.852,16.032 4.534,16.032 4.955,15.611 L7.999,12.567 L11.043,15.611 C11.464,16.032 12.146,16.032 12.566,15.611 L15.611,12.567 C16.031,12.146 16.031,11.464 15.611,11.044 L12.566,8 L12.566,8 Z" fill="#434343" class="si-glyph-fill"></path>
    </g>
</svg>